<svg xmlns="http://www.w3.org/2000/svg" viewBox="0 0 240 220" fill="none" stroke="currentColor" stroke-width="7" stroke-linecap="round" stroke-linejoin="round" aria-hidden="true">
  <!-- rear end rising out of the water: a tall dome -->
  <path d="M72 164C70 112 90 58 124 52c34-6 58 50 56 112"/>
  <!-- tail tuft at the top, pointing up and back -->
  <path d="M124 52c-2-14 4-26 14-32M126 50c6-10 16-16 28-16M131 56c8-4 18-4 28 0"/>
  <!-- left leg + webbed foot kicking in the air -->
  <path d="M86 112c-12-6-22-18-26-32"/>
  <path d="M60 80l-18-6M60 80l-14-14M60 80l-4-18M42 74c4 6 10 10 14 12M46 66c2 6 6 10 10 14"/>
  <!-- right leg + webbed foot -->
  <path d="M166 108c12-8 20-20 22-34"/>
  <path d="M188 74l18-4M188 74l16-12M188 74l6-18M206 70c-4 6-10 10-14 12M204 62c-2 6-6 10-10 14"/>
  <!-- water line -->
  <path d="M10 164c14-10 28-10 42 0s28 10 42 0 28-10 42 0 28 10 42 0 28-10 42 0 28 10 10 0"/>
  <!-- bubbles from the head, under water -->
  <circle cx="62" cy="186" r="4" stroke-width="5"/><circle cx="46" cy="200" r="6" stroke-width="5"/><circle cx="72" cy="206" r="3" stroke-width="5"/>
</svg>
